<?xml version="1.0" standalone="no"?>
<!DOCTYPE svg PUBLIC "-//W3C//DTD SVG 20010904//EN"
 "http://www.w3.org/TR/2001/REC-SVG-20010904/DTD/svg10.dtd">
<svg version="1.0" xmlns="http://www.w3.org/2000/svg"
 width="500.000000pt" height="500.000000pt" viewBox="0 0 500.000000 500.000000"
 preserveAspectRatio="xMidYMid meet">
<metadata>
Created by potrace 1.14, written by Peter Selinger 2001-2017
</metadata>
<g transform="translate(0.000000,500.000000) scale(0.100000,-0.100000)"
fill="#000000" stroke="none">
<path d="M2253 4975 c-80 -22 -126 -49 -172 -101 -52 -60 -74 -130 -69 -226
l3 -70 -96 -32 c-109 -37 -199 -95 -274 -178 -71 -79 -90 -112 -135 -238 -53
-148 -60 -237 -32 -398 16 -91 24 -116 43 -132 58 -48 74 -18 89 168 14 185
50 262 149 316 102 55 233 55 393 0 148 -51 211 -49 400 11 187 60 326 44 415
-47 67 -70 93 -142 123 -333 19 -125 39 -151 89 -114 22 16 31 36 44 92 39
168 47 307 21 384 -27 82 -81 187 -124 241 -53 66 -185 166 -273 206 l-68 32
-2 104 c-3 125 -22 174 -93 240 -75 69 -120 84 -259 87 -82 2 -137 -2 -172
-12z"/>
<path d="M2640 3876 c0 -9 6 -18 13 -21 28 -8 137 -12 137 -5 0 10 -51 27
-107 36 -36 5 -43 4 -43 -10z"/>
<path d="M1858 3834 c-63 -19 -61 -32 5 -27 77 6 97 12 97 28 0 19 -39 19
-102 -1z"/>
<path d="M2877 3527 c-8 -12 -38 -35 -67 -51 -70 -38 -127 -33 -208 17 -31 19
-59 33 -61 31 -8 -8 64 -76 101 -95 67 -35 161 -19 220 38 15 14 31 22 38 18
9 -5 10 -1 5 15 -6 19 -4 22 11 16 17 -7 17 -6 -1 14 -22 25 -20 25 -38 -3z"/>
<path d="M1757 3523 c-12 -12 -7 -23 7 -17 11 4 13 0 9 -18 -3 -13 -2 -20 2
-16 4 4 23 -6 43 -23 44 -39 72 -49 130 -49 59 0 120 28 155 69 42 50 32 55
-28 14 -95 -63 -193 -55 -264 21 -24 26 -42 32 -54 19z"/>
<path d="M2960 2418 c-20 -142 -48 -182 -165 -241 -27 -14 -68 -41 -90 -60
-32 -28 -37 -38 -28 -48 10 -10 24 -4 70 28 32 21 79 51 104 66 26 15 59 41
73 58 26 30 26 30 26 6 0 -14 -28 -64 -65 -117 -37 -51 -65 -100 -63 -109 2
-10 18 -18 41 -22 20 -3 45 -13 55 -22 10 -9 42 -21 72 -27 69 -14 107 -28
143 -53 l29 -20 -4 23 c-5 38 -48 61 -137 72 -54 7 -81 15 -81 24 0 7 18 50
40 95 45 93 50 143 24 219 -12 34 -14 64 -9 127 6 70 5 83 -8 83 -11 0 -18
-21 -27 -82z"/>
<path d="M3366 2404 c-3 -9 -6 -29 -6 -44 0 -16 -10 -55 -22 -87 -17 -47 -40
-77 -115 -153 -58 -59 -93 -103 -93 -116 0 -42 5 -39 128 71 68 60 118 129
142 192 20 54 20 59 5 100 -19 49 -30 60 -39 37z"/>
<path d="M2764 2397 c-12 -6 -63 -51 -114 -99 -71 -67 -88 -88 -71 -88 14 0
21 -6 21 -20 0 -11 1 -20 3 -20 6 0 121 104 175 158 29 29 52 58 49 65 -5 17
-38 19 -63 4z"/>
<path d="M3482 2092 c-12 -41 -102 -151 -169 -208 -45 -38 -55 -71 -28 -94 20
-17 75 21 155 107 85 90 94 111 79 179 -7 30 -15 54 -19 54 -4 0 -12 -17 -18
-38z"/>
<path d="M2933 1714 c-11 -30 5 -133 30 -188 27 -58 32 -62 57 -46 11 7 11 10
2 10 -25 0 -65 109 -66 177 -1 61 -10 80 -23 47z"/>
<path d="M3290 1573 c-8 -3 -28 -17 -44 -30 -43 -36 -196 -104 -218 -97 -10 3
-46 7 -80 9 -35 2 -85 11 -113 21 -43 15 -83 17 -270 15 -193 -2 -232 -6 -320
-27 -55 -13 -110 -24 -121 -24 -12 0 -46 -11 -76 -24 -31 -14 -73 -28 -94 -32
-42 -8 -86 -33 -150 -85 -23 -19 -56 -42 -73 -51 -24 -13 -31 -24 -31 -46 0
-45 18 -54 66 -33 37 17 124 103 124 123 0 4 21 22 47 38 47 30 121 41 151 22
14 -9 -59 -93 -205 -235 -94 -90 -108 -124 -46 -112 67 12 121 63 181 170 32
57 48 75 88 97 56 31 72 34 99 14 18 -13 17 -15 -18 -58 -37 -45 -111 -192
-105 -209 2 -5 17 0 35 11 31 18 73 84 73 113 0 7 14 26 30 42 29 28 35 30
123 30 83 0 98 3 159 33 37 17 75 32 84 32 9 0 38 -12 62 -26 97 -57 249 -40
336 37 24 22 49 39 55 39 26 0 90 -41 121 -77 65 -75 155 -106 205 -69 27 20
10 37 -84 84 -99 50 -191 109 -191 122 0 15 63 40 98 40 53 0 97 -22 157 -80
89 -86 113 -95 159 -59 l27 21 -113 70 c-62 38 -132 74 -155 81 -24 6 -43 14
-43 17 0 11 70 40 113 46 47 7 67 20 67 40 0 10 -13 14 -47 13 -27 0 -55 -3
-63 -6z"/>
<path d="M1524 1421 c-68 -41 -55 -67 20 -41 38 14 68 18 103 13 28 -3 58 -1
68 5 16 8 14 11 -13 17 -18 3 -34 11 -37 16 -11 17 -108 10 -141 -10z"/>
<path d="M418 650 c-77 -41 -116 -131 -104 -241 3 -33 11 -70 17 -82 42 -83
139 -127 232 -107 67 14 92 31 117 80 l20 39 -29 16 c-37 19 -51 19 -51 1 0
-8 -14 -26 -31 -40 -58 -49 -144 -27 -173 44 -29 73 -16 168 30 211 20 19 36
24 76 24 43 0 53 -4 78 -32 l28 -31 31 19 c36 21 37 26 15 57 -42 60 -179 82
-256 42z"/>
<path d="M865 656 c-78 -34 -123 -135 -111 -249 14 -140 118 -216 255 -186 87
18 141 81 155 182 9 59 -8 145 -37 189 -45 68 -179 101 -262 64z m165 -84 c55
-41 61 -188 11 -244 -33 -37 -94 -47 -138 -24 -87 44 -81 236 8 284 30 16 86
8 119 -16z"/>
<path d="M1260 444 l0 -226 123 3 c112 4 126 6 169 31 64 38 88 90 88 191 0
92 -14 131 -63 174 -44 38 -107 53 -227 53 l-90 0 0 -226z m258 113 c24 -24
27 -36 30 -106 4 -75 3 -80 -24 -110 -30 -33 -79 -50 -141 -51 l-33 0 0 151 0
151 70 -4 c60 -3 74 -8 98 -31z"/>
<path d="M1740 446 l0 -226 45 0 45 0 -2 223 -3 222 -42 3 -43 3 0 -225z"/>
<path d="M1948 664 c-5 -4 -8 -106 -8 -226 l0 -218 103 0 c157 0 218 24 259
103 33 63 32 176 -2 242 -39 75 -90 98 -234 103 -61 2 -114 1 -118 -4z m246
-106 c68 -68 53 -216 -23 -248 -17 -7 -54 -13 -83 -14 l-53 -1 -3 148 -3 147
67 0 c61 0 68 -2 98 -32z"/>
<path d="M2420 445 l0 -225 45 0 45 0 0 100 0 100 100 0 100 0 0 -100 0 -100
45 0 45 0 0 225 0 225 -45 0 -45 0 0 -85 0 -85 -100 0 -100 0 0 85 0 85 -45 0
-45 0 0 -225z"/>
<path d="M3015 658 c-43 -122 -145 -423 -145 -429 0 -5 19 -9 43 -9 43 0 44 0
58 48 l15 47 89 0 89 0 15 -47 c14 -48 15 -48 58 -48 28 0 43 4 42 13 0 6 -33
106 -73 222 l-73 210 -57 3 c-39 2 -58 -1 -61 -10z m90 -168 c14 -40 25 -77
25 -82 0 -4 -27 -8 -59 -8 l-60 0 25 73 c33 99 34 100 39 95 3 -3 16 -38 30
-78z"/>
<path d="M3350 445 l0 -225 45 0 45 0 0 96 0 97 40 -6 c23 -3 47 -10 55 -17 8
-6 26 -47 40 -91 l27 -79 45 0 c32 0 44 4 41 13 -3 6 -15 43 -28 80 -12 38
-32 80 -45 94 l-22 27 40 38 c37 35 39 40 34 83 -9 89 -59 115 -219 115 l-98
0 0 -225z m208 139 c25 -17 31 -71 10 -92 -7 -7 -38 -12 -70 -12 l-58 0 0 60
0 60 48 0 c27 0 57 -7 70 -16z"/>
<path d="M3770 445 l0 -225 40 0 39 0 3 151 3 151 34 -99 c75 -216 68 -203
109 -203 l37 0 50 145 c27 80 53 145 57 145 4 0 8 -65 8 -145 l0 -145 40 0 40
0 0 225 0 226 -57 -3 -58 -3 -55 -162 c-30 -90 -57 -163 -60 -163 -3 0 -30 73
-60 163 l-55 162 -57 3 -58 3 0 -226z"/>
<path d="M4445 658 c-43 -122 -145 -423 -145 -429 0 -5 19 -9 43 -9 43 0 44 0
58 48 l15 47 89 0 89 0 15 -47 c14 -48 15 -48 58 -48 28 0 43 4 42 13 0 6 -33
106 -73 222 l-73 210 -57 3 c-39 2 -58 -1 -61 -10z m90 -168 c14 -40 25 -77
25 -82 0 -4 -27 -8 -59 -8 l-60 0 25 73 c33 99 34 100 39 95 3 -3 16 -38 30
-78z"/>
</g>
</svg>
